# xmcd CD database file
#
# Track frame offsets:
#	150
#	29466
#	47171
#	80967
#	118314
#	153485
#	183736
#	218147
#	238554
#
# Disc length: 3422 seconds
#
# Revision: 1
# Processed by: cddbd v1.5.2PL0 Copyright (c) Steve Scherf et al.
# Submitted via: CDex 1.70beta2
#
DISCID=830d5c09
DTITLE=C.A.L.E. - C.A.L.E.
DYEAR=2006
DGENRE=Jazz
TTITLE0=Llamado caribe
TTITLE1=La creación
TTITLE2=Niño Caribe
TTITLE3=Noche de velas
TTITLE4=La Nevera
TTITLE5=Día primero
TTITLE6=La edad de la libélula
TTITLE7=Jesús
TTITLE8=Calectrics
EXTD=YEAR: 2006
EXTT0=
EXTT1=
EXTT2=
EXTT3=
EXTT4=
EXTT5=
EXTT6=
EXTT7=
EXTT8=
PLAYORDER=
